PathFileType	4	(X/Y/Z)	D:\TRACE\v60_Jaco2_6-2-23\BothDRS_Motion2_2-platform.trc
DataRate	CameraRate	NumFrames	NumMarkers	Units	OrigDataRate	OrigDataStartFrame	OrigNumFrames
100.00	100.00	      62	5	mm	100.00	1	      7500
Frame#	Time	Left_Front			Right_Front			Left_Aft			Right_Aft			Post			
		X1	Y1	Z1	X2	Y2	Z2	X3	Y3	Z3	X4	Y4	Z4	X5	Y5	Z5	

1	0.000	-800.48468	9.09759	-639.00037	769.48157	10.14459	-644.31781	-708.58545	8.07362	496.16461	733.54340	7.05702	505.12949	-14.27393	1308.02197	-962.04156	
2	0.010	-800.50775	9.06233	-639.00989	769.41266	10.14203	-644.37726	-708.63251	8.10639	496.14548	733.50098	7.04765	505.12494	-14.26905	1307.99963	-962.02417	
3	0.020	-800.52576	9.06766	-638.99695	769.42645	10.14704	-644.38287	-708.65454	8.11174	496.14163	733.45789	6.98666	505.10544	-14.30597	1308.01440	-962.05585	
4	0.030	-800.49658	9.05890	-639.00281	769.52124	10.11924	-644.31897	-708.63568	8.09316	496.11932	733.42590	6.98460	505.10068	-14.32437	1307.97913	-962.05365	
5	0.040	-800.48651	9.02537	-638.99890	769.52435	10.13012	-644.31970	-708.62775	8.08933	496.12152	733.46741	6.99821	505.12381	-14.31094	1307.97742	-962.00305	
6	0.050	-800.49158	9.05839	-639.01727	769.56183	10.15485	-644.28522	-708.58148	8.08243	496.14114	733.50525	7.02857	505.10153	-14.36212	1308.03491	-962.06750	
7	0.060	-800.45837	9.09156	-638.97876	769.56628	10.13153	-644.31555	-708.62921	8.11779	496.13727	733.48169	7.03800	505.09668	-14.34468	1308.02551	-962.06769	
8	0.070	-800.49078	9.09722	-638.96954	769.47198	10.17293	-644.34827	-708.61401	8.10508	496.13943	733.50220	7.05471	505.12177	-14.29969	1308.02466	-962.04413	
9	0.080	-800.50067	9.09069	-639.00269	769.45819	10.15335	-644.36060	-708.60992	8.07576	496.15155	733.47693	7.01149	505.12198	-14.34072	1308.02380	-962.05615	
10	0.090	-800.43201	9.06489	-638.96808	769.40552	10.14418	-644.39941	-708.64679	8.09393	496.13245	733.47705	7.01362	505.10175	-14.31660	1308.03418	-962.04425	
11	0.100	-800.49371	9.13052	-638.97742	769.47961	10.16606	-644.35248	-708.59875	8.07439	496.13846	733.47693	7.04291	505.10458	-14.30032	1308.02356	-962.05621	
12	0.110	-800.48767	9.09185	-638.99573	769.46619	10.20319	-644.35675	-708.60901	8.11724	496.11017	733.51862	7.02219	505.11359	-14.30500	1308.01880	-962.03827	
13	0.120	-800.47491	9.07197	-638.97992	769.40247	10.15011	-644.38953	-708.58179	8.09137	496.16757	733.50873	7.04353	505.13052	-14.34390	1308.04175	-962.08710	
14	0.130	-800.52246	9.11129	-638.94940	769.43030	10.13126	-644.36029	-708.63098	8.09839	496.13348	733.49310	7.03638	505.12830	-14.31593	1307.95654	-962.07184	
15	0.140	-800.49762	9.09989	-638.96954	769.52051	10.15013	-644.32861	-708.62598	8.06716	496.15417	733.50470	7.01639	505.12387	-14.28385	1307.95447	-962.02692	
16	0.150	-800.48370	9.07579	-639.00116	769.41028	10.15099	-644.36353	-708.60455	8.08675	496.14566	733.45776	6.99477	505.12195	-14.30212	1307.98254	-962.04797	
17	0.160	-800.49219	9.09279	-639.00635	769.44788	10.17979	-644.36029	-708.58484	8.09521	496.12866	733.51428	7.01383	505.10605	-14.23983	1307.99219	-962.05499	
18	0.170	-800.46606	9.11002	-638.98633	769.56488	10.16412	-644.29340	-708.58905	8.07031	496.11111	733.50397	7.02167	505.11142	-14.22505	1308.02014	-962.10034	
19	0.180	-800.47681	9.06424	-638.97516	769.41241	10.16813	-644.36011	-708.61462	8.11225	496.13959	733.46021	6.99528	505.12949	-14.32132	1307.98962	-962.03674	
20	0.190	-800.50446	9.07141	-638.96704	769.53827	10.11319	-644.35535	-708.56531	8.05716	496.13507	733.57037	7.05924	505.12991	-14.27271	1307.95422	-962.06451	
21	0.200	-800.50195	9.04036	-638.99103	769.52173	10.10463	-644.32935	-708.60168	8.07135	496.14539	733.50140	7.02340	505.11563	-14.30987	1307.97559	-962.06714	
22	0.210	-800.49152	9.11401	-638.98303	769.46344	10.14754	-644.35779	-708.56415	8.06704	496.14871	733.54688	7.03531	505.10815	-14.28866	1308.00549	-962.06726	
23	0.220	-800.47968	9.11200	-639.01416	769.46674	10.15087	-644.34210	-708.60114	8.08737	496.13058	733.54315	7.04795	505.10715	-14.31292	1308.02319	-962.07751	
24	0.230	-800.46399	9.10898	-638.97919	769.46155	10.17015	-644.34735	-708.63098	8.11283	496.11346	733.47711	7.03428	505.12039	-14.27576	1308.01880	-962.06476	
25	0.240	-800.47699	9.07200	-638.97241	769.53094	10.14476	-644.30005	-708.68774	8.13937	496.14899	733.42047	7.02599	505.10297	-14.32486	1307.98279	-962.07019	
26	0.250	-800.49158	9.01845	-638.98224	769.54907	10.14464	-644.28888	-708.63580	8.07831	496.14111	733.44318	7.00106	505.10568	-14.36231	1307.98950	-962.09070	
27	0.260	-800.47333	9.05080	-639.02222	769.45001	10.16859	-644.35358	-708.65778	8.12642	496.09561	733.49762	7.04420	505.10397	-14.30832	1308.02380	-962.07349	
28	0.270	-800.44806	9.09028	-639.01111	769.42352	10.17779	-644.38910	-708.59747	8.09237	496.10400	733.47394	7.03033	505.08292	-14.29368	1308.05298	-962.07434	
29	0.280	-800.47168	9.08742	-639.02631	769.48572	10.17783	-644.30396	-708.58722	8.11903	496.10956	733.55304	7.08824	505.14032	-14.25709	1308.04370	-962.07520	
30	0.290	-800.49670	9.02823	-639.01672	769.51886	10.15124	-644.33600	-708.63708	8.09348	496.11673	733.51453	7.02344	505.11331	-14.32953	1308.01025	-962.04724	
31	0.300	-800.50958	9.03374	-639.03333	769.53070	10.12018	-644.32587	-708.60883	8.07381	496.11823	733.44141	6.97795	505.09482	-14.26306	1307.98682	-962.08667	
32	0.310	-800.48486	9.03164	-639.02191	769.39990	10.16892	-644.36713	-708.58411	8.07067	496.13751	733.52448	7.03634	505.12448	-14.28386	1308.00000	-962.07318	
33	0.320	-800.47412	9.10066	-638.99097	769.46820	10.19709	-644.35120	-708.62848	8.09424	496.17596	733.45422	7.02668	505.10388	-14.28297	1308.01135	-962.03467	
34	0.330	-800.45764	9.06267	-639.04083	769.59576	10.14577	-644.28778	-708.59351	8.09800	496.10318	733.49329	7.01615	505.12701	-14.30401	1308.01721	-962.07941	
35	0.340	-800.49078	9.08044	-638.98914	769.35803	10.17257	-644.40363	-708.60162	8.07801	496.12967	733.51453	7.05088	505.10352	-14.31479	1307.97363	-962.07623	
36	0.350	-800.48859	9.08741	-638.96228	769.55121	10.11143	-644.29462	-708.61115	8.07390	496.16351	733.47119	7.01863	505.11520	-14.26092	1307.96716	-962.06183	
37	0.360	-800.50800	9.06492	-638.98322	769.39490	10.16485	-644.37524	-708.60272	8.06345	496.16202	733.47711	6.97872	505.11703	-14.21085	1307.93896	-962.06183	
38	0.370	-800.46606	9.05418	-638.99042	769.44800	10.19687	-644.36932	-708.58905	8.08251	496.14877	733.55432	7.02247	505.13046	-14.24076	1307.98499	-962.03833	
39	0.380	-800.48096	9.07617	-639.04639	769.55872	10.15481	-644.31158	-708.59448	8.09031	496.12332	733.50140	7.04205	505.12125	-14.32682	1308.01123	-962.06488	
40	0.390	-800.50214	9.13216	-639.00488	769.40417	10.16485	-644.40918	-708.55743	8.11013	496.16025	733.50970	7.02253	505.10574	-14.31826	1308.03760	-962.07886	
41	0.400	-800.48389	9.11211	-638.96289	769.40417	10.15831	-644.34949	-708.62512	8.06492	496.17719	733.43793	6.99618	505.13040	-14.34500	1308.01208	-962.05334	
42	0.410	-800.49817	9.07399	-638.97925	769.43256	10.17112	-644.32910	-708.61755	8.08034	496.12155	733.45288	7.00052	505.10989	-14.36864	1308.02197	-962.05328	
43	0.420	-800.52173	9.11992	-638.98004	769.46411	10.18058	-644.33124	-708.59589	8.08200	496.12592	733.49756	7.04154	505.12720	-14.33632	1308.00757	-962.06763	
44	0.430	-800.45746	9.08273	-639.01892	769.41833	10.16549	-644.33673	-708.60736	8.12490	496.09305	733.50824	7.04985	505.11710	-14.29734	1308.03784	-962.06445	
45	0.440	-800.45819	9.06517	-639.04456	769.39703	10.14791	-644.41821	-708.62927	8.10556	496.10165	733.56531	7.05407	505.13535	-14.30466	1308.03479	-962.05872	
46	0.450	-800.49579	9.10833	-638.99396	769.44312	10.15534	-644.34094	-708.58496	8.08165	496.12506	733.51147	7.02882	505.12756	-14.33984	1308.02759	-962.05908	
47	0.460	-800.52362	9.09149	-638.99445	769.36200	10.17964	-644.40479	-708.65125	8.09414	496.15472	733.48425	7.00601	505.12427	-14.34485	1308.00110	-962.05670	
48	0.470	-800.48865	9.07092	-638.96619	769.52295	10.13180	-644.31573	-708.65381	8.07660	496.14227	733.48834	7.02376	505.09442	-14.31612	1308.00293	-962.03815	
49	0.480	-800.46454	9.08760	-638.97144	769.52643	10.12489	-644.33044	-708.63531	8.11391	496.12976	733.50916	7.03515	505.10800	-14.28031	1308.00024	-962.02533	
50	0.490	-800.49182	9.12007	-638.99762	769.56641	10.14244	-644.31000	-708.60925	8.03729	496.10229	733.52472	7.04059	505.11560	-14.30097	1308.01624	-962.09174	
51	0.500	-800.48669	9.07687	-639.02759	769.56494	10.14404	-644.31348	-708.58820	8.07908	496.13470	733.51978	7.04993	505.12582	-14.27460	1307.98059	-962.07153	
52	0.510	-800.50031	9.06996	-638.97937	769.46832	10.12711	-644.33630	-708.61261	8.05432	496.14758	733.48645	7.02330	505.11887	-14.27738	1307.95178	-962.06635	
53	0.520	-800.49976	9.08737	-638.95709	769.39276	10.12773	-644.38763	-708.62146	8.06041	496.14709	733.47198	7.02670	505.12164	-14.21994	1307.93201	-962.05688	
54	0.530	-800.47815	9.04767	-639.02429	769.44409	10.13436	-644.34161	-708.58392	8.06551	496.13962	733.53149	7.01438	505.13672	-14.30182	1307.99548	-962.06348	
55	0.540	-800.48651	9.09077	-639.06165	769.45813	10.14433	-644.32837	-708.57684	8.06174	496.13538	733.53412	7.04408	505.13101	-14.30964	1307.99512	-962.03918	
56	0.550	-800.47150	9.07235	-639.03754	769.56445	10.13303	-644.31519	-708.64130	8.12513	496.13373	733.54663	7.06569	505.13617	-14.27927	1307.98682	-962.03052	
57	0.560	-800.49292	9.05285	-638.99072	769.41614	10.19533	-644.36420	-708.62085	8.10174	496.14621	733.53369	7.04330	505.12372	-14.29119	1308.00354	-962.07281	
58	0.570	-800.47992	9.06352	-639.00745	769.41144	10.15057	-644.39380	-708.65564	8.09957	496.11224	733.51794	7.01830	505.12457	-14.28647	1307.96765	-962.04211	
59	0.580	-800.51611	9.06004	-638.97101	769.38538	10.15330	-644.37720	-708.62531	8.06434	496.14954	733.56281	7.05447	505.13464	-14.34155	1308.00208	-962.04022	
60	0.590	-800.47424	9.10038	-639.00415	769.54333	10.15158	-644.33557	-708.58972	8.10320	496.10458	733.52594	7.04443	505.12918	-14.35897	1308.02673	-962.08142	
61	0.600	-800.49353	9.13246	-639.04169	769.49176	10.17695	-644.36530	-708.62085	8.13402	496.07816	733.50372	7.04553	505.11755	-14.31879	1308.05737	-962.06750	
62	0.610	-800.46381	9.10804	-638.98682	769.45660	10.15839	-644.36108	-708.62622	8.10337	496.08560	733.49152	7.03712	505.10464	-14.33912	1308.03320	-962.03119	
